<svg height="36" viewBox="0 0 36 36" width="36" xmlns="http://www.w3.org/2000/svg"><g fill="none" fill-rule="evenodd"><path d="m0 0h36v36h-36z" fill-rule="nonzero"/><path d="m3.6 32.3085938v-28.7085938h3.14296875 7.17187505c2.7843889 0 4.8937415.25311551 6.5812499 2.1515625 1.6875085 1.89844699 2.53125 4.4156093 2.53125 7.5515625 0 3.1922035-.8261636 5.7269437-2.4785156 7.6042969-1.652352 1.8773531-3.863658 2.8160156-6.6339844 2.8160156-1.5890704 0-2.9742128-.3621058-4.1554687-1.0863281-1.18125591-.7242224-2.14452752-1.8035085-2.88984375-3.2378906v12.909375z" fill="#b50079"/><path d="m10.8 32.3085938v-28.7085938h3.1429688 7.171875c2.7843889 0 4.8937415.25311551 6.5812499 2.1515625 1.6875085 1.89844699 2.53125 4.4156093 2.53125 7.5515625 0 3.1922035-.8261636 5.7269437-2.4785156 7.6042969-1.652352 1.8773531-3.863658 2.8160156-6.6339844 2.8160156-1.5890704 0-2.9742128-.3621058-4.1554687-1.0863281-1.1812559-.7242224-2.1445275-1.8035085-2.8898437-3.2378906v12.909375z" fill="#ff41b4" transform="matrix(1 0 0 -1 0 35.908594)"/><path d="m13.9148438 3.6c.0517955 0 .1033575.00008759.1546874.00027173v12.90910327c.7453163-1.4343822 1.7085879-2.5136683 2.8898438-3.2378906 1.1812559-.7242224 2.5663983-1.0863281 4.1554687-1.0863281.6601191 0 1.2884979.0532956 1.8851373.1598874.0182419.3126713.0273627.6320317.0273627.9580813 0 3.1922035-.8261636 5.7269437-2.4785156 7.6042969-1.652352 1.8773531-3.863658 2.8160156-6.6339844 2.8160156-1.143961 0-2.1822371-.1876599-3.1148437-.5629839v-19.5604536z" fill="#ffa3d7"/></g></svg>