<?xml version="1.0" encoding="UTF-8"?>
<svg width="8px" height="8px" viewBox="0 0 8 8" version="1.1" xmlns="http://www.w3.org/2000/svg" xmlns:xlink="http://www.w3.org/1999/xlink">
<style>
#path1 {
cursor: pointer;
fill: #000000;
};
#path1:hover {
color: #001b44;
};
#Combined-Shape {
cursor: pointer;
fill: #B3B3B3;
};
#Combined-Shape:hover {
color: #00449e;
};
#path2 {
cursor: pointer;
fill: #6C6B6B;
};
#path2:hover {
color: #357edd;
};
</style>
    <!-- Generator: Sketch 52.6 (67491) - http://www.bohemiancoding.com/sketch -->
    <title>Po Bhattacharyya logo</title>
    <g id="Page-1" stroke="none" stroke-width="1" fill="none" fill-rule="evenodd">
        <g id="Desktop-HD" transform="translate(-481.000000, -59.000000)">
            <g id="Group-2" transform="translate(480.000000, 58.000000)">
                <rect id="Rectangle" fill-rule="nonzero" x="0" y="0" width="10" height="10"></rect>
                <path d="M1,8.97460938 L1,1 L1.87304687,1 C2.92252465,1 3.58658715,1 3.86523438,1 C4.63867574,1 5.22460703,1.07030986 5.69335937,1.59765625 C6.16211172,2.12500264 6.39648437,2.82421439 6.39648437,3.6953125 C6.39648437,4.58203568 6.16699448,5.28613021 5.70800781,5.80761719 C5.24902114,6.32910417 4.63476947,6.58984375 3.86523437,6.58984375 C3.42382592,6.58984375 3.03906414,6.48925882 2.7109375,6.28808594 C2.38281086,6.08691306 2.11523541,5.78711137 1.90820312,5.38867188 L1.90820312,8.97460938 L1,8.97460938 Z" id="Path1"></path>
                <path d="M3,8.97460938 L3,1 L3.87304687,1 C4.92252465,1 5.58658715,1 5.86523438,1 C6.63867574,1 7.22460703,1.07030986 7.69335937,1.59765625 C8.16211172,2.12500264 8.39648437,2.82421439 8.39648437,3.6953125 C8.39648437,4.58203568 8.16699448,5.28613021 7.70800781,5.80761719 C7.24902114,6.32910417 6.63476947,6.58984375 5.86523437,6.58984375 C5.42382592,6.58984375 5.03906414,6.48925882 4.7109375,6.28808594 C4.38281086,6.08691306 4.11523541,5.78711137 3.90820312,5.38867188 L3.90820312,8.97460938 L3,8.97460938 Z" id="Path2" transform="translate(5.698242, 4.987305) scale(1, -1) translate(-5.698242, -4.987305) "></path>
                <path d="M3.86523438,1 C3.87962203,1 3.89394479,1.00002433 3.90820312,1.00007548 L3.90820312,4.5859375 C4.11523541,4.18749801 4.38281086,3.88769632 4.7109375,3.68652344 C5.03906414,3.48535056 5.42382592,3.38476562 5.86523437,3.38476562 C6.04860077,3.38476562 6.22315044,3.39956998 6.38888362,3.42917881 C6.39395079,3.51603195 6.39648437,3.60474318 6.39648437,3.6953125 C6.39648437,4.58203568 6.16699448,5.28613021 5.70800781,5.80761719 C5.24902114,6.32910417 4.63476947,6.58984375 3.86523437,6.58984375 C3.54746742,6.58984375 3.2590574,6.53771599 3,6.43345934 L3,1 L3.86523438,1 Z" id="Combined-Shape"></path>
            </g>
        </g>
    </g>
</svg>