<?xml version="1.0" encoding="utf-8"?>
<!-- Generator: Adobe Illustrator 21.1.0, SVG Export Plug-In . SVG Version: 6.00 Build 0)  -->
<svg version="1.1" id="Layer_1" xmlns="http://www.w3.org/2000/svg" xmlns:xlink="http://www.w3.org/1999/xlink" x="0px" y="0px"
	 viewBox="0 0 36 36" style="enable-background:new 0 0 36 36;" xml:space="preserve">
<style type="text/css">
	.st0{fill:#FF9D00;}
</style>
<g>
	<path class="st0" d="M17.4,10h-0.9v8.8h0.9c2.7,0,4-1.7,4-4.4S20,10,17.4,10z"/>
	<path class="st0" d="M2.9,2.9v30.2h30.2V2.9H2.9z M18.5,20h-1.9v4.2c0,1.4,0.7,1.8,3.1,1.9v1h-9.5v-1c1.8-0.2,2-0.4,2-1.8V11.7
		c0-1.4-0.2-1.6-2-1.8v-1h8.4c5,0,7.3,2.4,7.3,5.5C25.9,17.8,23.4,20,18.5,20z"/>
</g>
</svg>
