<?xml version="1.0" encoding="utf-8"?>
<!-- Generator: Adobe Illustrator 21.1.0, SVG Export Plug-In . SVG Version: 6.00 Build 0)  -->
<svg version="1.1" id="Layer_1" xmlns="http://www.w3.org/2000/svg" xmlns:xlink="http://www.w3.org/1999/xlink" x="0px" y="0px"
	 viewBox="0 0 36 36" style="enable-background:new 0 0 36 36;" xml:space="preserve">
<style type="text/css">
	.st0{fill:#303030;}
</style>
<title>po-logo</title>
<g id="po-logo">
	<rect x="2.9" y="2.9" width="30.2" height="30.2"/>
	<g>
		<path class="st0" d="M16.5,24.2c0,1.4,0.7,1.8,3.1,1.9v1h-9.5v-1c1.8-0.2,2-0.4,2-1.8V11.7c0-1.4-0.2-1.6-2-1.8v-1h8.4
			c5,0,7.3,2.4,7.3,5.5c0,3.5-2.4,5.6-7.4,5.6h-1.9V24.2z M16.5,18.8h0.9c2.7,0,4-1.7,4-4.4c0-2.6-1.5-4.4-4-4.4h-0.9V18.8z"/>
	</g>
</g>
</svg>
