<svg id="Layer_1" data-name="Layer 1" xmlns="http://www.w3.org/2000/svg" viewBox="0 0 1303 540.36"><defs><style>.cls-1{fill:#e86042;}.cls-2{fill:#d8533d;}.cls-3{fill:#ef6852;}.cls-4{fill:#4242e5;}.cls-5{fill:#3e3ed6;}.cls-6{fill:#5454ed;}.cls-7{fill:#c744e2;}.cls-8{fill:#b640d3;}.cls-9{fill:#cd54ea;}.cls-10{fill:#e2d344;}.cls-11{fill:#d3c140;}.cls-12{fill:#ead854;}.cls-13{fill:#0080ff;}.cls-14{fill:#fff;}.cls-15{fill:#78d6ff;}.cls-16,.cls-17,.cls-18,.cls-19{fill:#0d0d23;stroke-miterlimit:10;stroke-width:3px;}.cls-16{stroke:#e86042;}.cls-17{stroke:#c744e2;}.cls-18{stroke:#5454ed;}.cls-19{stroke:#e2d344;}</style></defs><title>Artboard 14 copy@1</title><polygon class="cls-1" points="842.71 477.04 821.41 467 821.41 445.09 842.69 439.22 842.71 477.04"/><polygon class="cls-2" points="842.69 439.22 864 445.05 864 467 842.71 477.03 842.69 439.22"/><polygon class="cls-3" points="864 445.05 842.69 439.22 821.41 445.09 842.7 452.14 864 445.05"/><polygon class="cls-1" points="746.5 78.9 728.37 70.36 728.37 51.7 746.49 46.71 746.5 78.9"/><polygon class="cls-2" points="746.49 46.71 764.62 51.67 764.62 70.36 746.5 78.89 746.49 46.71"/><polygon class="cls-3" points="764.62 51.67 746.49 46.71 728.37 51.7 746.49 57.71 764.62 51.67"/><polygon class="cls-1" points="209.23 445.11 173.8 428.41 173.8 391.95 209.2 382.18 209.23 445.11"/><polygon class="cls-2" points="209.2 382.18 244.66 391.88 244.66 428.4 209.23 445.09 209.2 382.18"/><polygon class="cls-3" points="244.66 391.88 209.2 382.18 173.8 391.95 209.21 403.68 244.66 391.88"/><polygon class="cls-1" points="1146.94 320.18 1127.8 311.15 1127.8 291.46 1146.92 286.18 1146.94 320.18"/><polygon class="cls-2" points="1146.92 286.18 1166.08 291.42 1166.08 311.15 1146.94 320.17 1146.92 286.18"/><polygon class="cls-3" points="1166.08 291.42 1146.92 286.18 1127.8 291.46 1146.93 297.8 1166.08 291.42"/><polygon class="cls-1" points="470.66 238.47 479.73 242.74 479.73 252.06 470.67 254.56 470.66 238.47"/><polygon class="cls-2" points="470.67 254.56 461.6 252.08 461.6 242.74 470.66 238.47 470.67 254.56"/><polygon class="cls-3" points="461.6 252.08 470.67 254.56 479.73 252.06 470.67 249.06 461.6 252.08"/><polygon class="cls-4" points="369.1 31.5 403.31 47.63 403.31 82.84 369.12 92.27 369.1 31.5"/><polygon class="cls-5" points="369.12 92.27 334.88 82.9 334.88 47.63 369.1 31.52 369.12 92.27"/><polygon class="cls-6" points="334.88 82.9 369.12 92.27 403.31 82.84 369.11 71.51 334.88 82.9"/><polygon class="cls-4" points="1000.2 166.19 1015.39 173.35 1015.39 188.99 1000.21 193.18 1000.2 166.19"/><polygon class="cls-5" points="1000.21 193.18 985 189.02 985 173.35 1000.2 166.19 1000.21 193.18"/><polygon class="cls-6" points="985 189.02 1000.21 193.18 1015.39 188.99 1000.2 183.96 985 189.02"/><polygon class="cls-4" points="593.06 462.56 576.9 454.94 576.9 438.31 593.05 433.85 593.06 462.56"/><polygon class="cls-5" points="593.05 433.85 609.22 438.28 609.22 454.94 593.06 462.55 593.05 433.85"/><polygon class="cls-6" points="609.22 438.28 593.05 433.85 576.9 438.31 593.06 443.66 609.22 438.28"/><polygon class="cls-4" points="72.42 331.18 46.91 319.15 46.91 292.89 72.4 285.85 72.42 331.18"/><polygon class="cls-5" points="72.4 285.85 97.94 292.84 97.94 319.14 72.42 331.16 72.4 285.85"/><polygon class="cls-6" points="97.94 292.84 72.4 285.85 46.91 292.89 72.41 301.34 97.94 292.84"/><polygon class="cls-4" points="839.06 287.56 822.9 279.94 822.9 263.31 839.05 258.85 839.06 287.56"/><polygon class="cls-5" points="839.05 258.85 855.22 263.28 855.22 279.94 839.06 287.55 839.05 258.85"/><polygon class="cls-6" points="855.22 263.28 839.05 258.85 822.9 263.31 839.06 268.66 855.22 263.28"/><polygon class="cls-4" points="1209.13 411.22 1217.51 415.17 1217.51 423.79 1209.14 426.1 1209.13 411.22"/><polygon class="cls-5" points="1209.14 426.1 1200.76 423.8 1200.76 415.17 1209.13 411.23 1209.14 426.1"/><polygon class="cls-6" points="1200.76 423.8 1209.14 426.1 1217.51 423.79 1209.14 421.01 1200.76 423.8"/><polygon class="cls-7" points="911.46 72.87 926.52 79.97 926.52 95.48 911.47 99.63 911.46 72.87"/><polygon class="cls-8" points="911.47 99.63 896.39 95.5 896.39 79.97 911.46 72.88 911.47 99.63"/><polygon class="cls-9" points="896.39 95.5 911.47 99.63 926.52 95.48 911.46 90.49 896.39 95.5"/><polygon class="cls-7" points="369.72 331.37 356.25 325.02 356.25 311.17 369.71 307.45 369.72 331.37"/><polygon class="cls-8" points="369.71 307.45 383.18 311.14 383.18 325.02 369.72 331.36 369.71 307.45"/><polygon class="cls-9" points="383.18 311.14 369.71 307.45 356.25 311.17 369.71 315.63 383.18 311.14"/><polygon class="cls-7" points="1209.6 128.18 1240 142.51 1240 173.79 1209.62 182.18 1209.6 128.18"/><polygon class="cls-8" points="1209.62 182.18 1179.2 173.85 1179.2 142.52 1209.6 128.2 1209.62 182.18"/><polygon class="cls-9" points="1179.2 173.85 1209.62 182.18 1240 173.79 1209.61 163.73 1179.2 173.85"/><polygon class="cls-10" points="392.67 491.57 371.34 481.51 371.34 459.56 392.65 453.68 392.67 491.57"/><polygon class="cls-11" points="392.65 453.68 414 459.52 414 481.51 392.67 491.55 392.65 453.68"/><polygon class="cls-12" points="414 459.52 392.65 453.68 371.34 459.56 392.66 466.62 414 459.52"/><polygon class="cls-10" points="965.41 367.96 930.27 351.39 930.27 315.23 965.39 305.54 965.41 367.96"/><polygon class="cls-11" points="965.39 305.54 1000.55 315.17 1000.55 351.39 965.41 367.94 965.39 305.54"/><polygon class="cls-12" points="1000.55 315.17 965.39 305.54 930.27 315.23 965.4 326.87 1000.55 315.17"/><polygon class="cls-10" points="87.29 72.36 102.82 79.68 102.82 95.65 87.3 99.94 87.29 72.36"/><polygon class="cls-11" points="87.3 99.94 71.77 95.68 71.77 79.68 87.29 72.37 87.3 99.94"/><polygon class="cls-12" points="71.77 95.68 87.3 99.94 102.82 95.65 87.3 90.51 71.77 95.68"/><polygon class="cls-10" points="518.49 96.52 506.61 90.91 506.61 78.69 518.48 75.41 518.49 96.52"/><polygon class="cls-11" points="518.48 75.41 530.37 78.67 530.37 90.91 518.49 96.51 518.48 75.41"/><polygon class="cls-12" points="530.37 78.67 518.48 75.41 506.61 78.69 518.48 82.62 530.37 78.67"/><polygon class="cls-7" points="243.34 160.17 267.8 171.7 267.8 196.87 243.36 203.61 243.34 160.17"/><polygon class="cls-8" points="243.36 203.61 218.89 196.91 218.89 171.7 243.34 160.18 243.36 203.61"/><polygon class="cls-9" points="218.89 196.91 243.36 203.61 267.8 196.87 243.35 188.77 218.89 196.91"/><polygon class="cls-7" points="1049.43 453.18 1033.35 445.59 1033.35 429.04 1049.42 424.61 1049.43 453.18"/><polygon class="cls-8" points="1049.42 424.61 1065.52 429.01 1065.52 445.59 1049.43 453.17 1049.42 424.61"/><polygon class="cls-9" points="1065.52 429.01 1049.42 424.61 1033.35 429.04 1049.43 434.37 1065.52 429.01"/><polygon class="cls-10" points="1082.37 68.4 1094.25 74 1094.25 86.23 1082.37 89.51 1082.37 68.4"/><polygon class="cls-11" points="1082.37 89.51 1070.48 86.25 1070.48 74.01 1082.37 68.41 1082.37 89.51"/><polygon class="cls-12" points="1070.48 86.25 1082.37 89.51 1094.25 86.23 1082.37 82.3 1070.48 86.25"/><path class="cls-13" d="M755.53,146.75H552.83c-10.71,0-23.42,9.41-23.42,20.12V370.8c0,10.71,10.75,21.47,21.47,21.47H754.8c10.71,0,20.12-12.71,20.12-23.42V166.15A19.4,19.4,0,0,0,755.53,146.75Zm10,212.7a19.4,19.4,0,0,1-19.4,19.4H562.23a19.4,19.4,0,0,1-19.4-19.4V175.54a19.4,19.4,0,0,1,19.4-19.4H746.14a19.4,19.4,0,0,1,19.4,19.4Z"/><rect class="cls-14" x="537.46" y="161.51" width="222.71" height="222.71" rx="3.61" ry="3.61"/><path class="cls-15" d="M750.17,152.12H547.47a19.4,19.4,0,0,0-19.4,19.4v202.7a19.4,19.4,0,0,0,19.4,19.4h202.7a19.4,19.4,0,0,0,19.4-19.4V171.51A19.4,19.4,0,0,0,750.17,152.12Zm10,220.26a11.83,11.83,0,0,1-11.83,11.83h-199a11.83,11.83,0,0,1-11.83-11.83v-199a11.83,11.83,0,0,1,11.83-11.83h199a11.83,11.83,0,0,1,11.83,11.83Z"/><rect class="cls-16" x="546.85" y="170.9" width="43.77" height="43.77" rx="1.36" ry="1.36"/><rect class="cls-16" x="546.85" y="332.39" width="43.77" height="43.77" rx="1.36" ry="1.36"/><rect class="cls-17" x="546.85" y="278.56" width="43.77" height="43.77" rx="1.36" ry="1.36"/><rect class="cls-18" x="546.85" y="224.73" width="43.77" height="43.77" rx="1.36" ry="1.36"/><rect class="cls-18" x="600.69" y="332.39" width="43.77" height="43.77" rx="1.36" ry="1.36"/><rect class="cls-19" x="600.69" y="278.56" width="43.77" height="43.77" rx="1.36" ry="1.36"/><rect class="cls-17" x="600.69" y="224.73" width="43.77" height="43.77" rx="1.36" ry="1.36"/><rect class="cls-17" x="654.52" y="332.39" width="43.77" height="43.77" rx="1.36" ry="1.36"/><rect class="cls-16" x="654.52" y="278.56" width="43.77" height="43.77" rx="1.36" ry="1.36"/><rect class="cls-16" x="654.52" y="224.73" width="43.77" height="43.77" rx="1.36" ry="1.36"/><rect class="cls-19" x="708.35" y="332.39" width="43.77" height="43.77" rx="1.36" ry="1.36"/><rect class="cls-18" x="708.35" y="278.56" width="43.77" height="43.77" rx="1.36" ry="1.36"/><rect class="cls-19" x="708.35" y="224.73" width="43.77" height="43.77" rx="1.36" ry="1.36"/><rect class="cls-19" x="600.69" y="170.9" width="43.77" height="43.77" rx="1.36" ry="1.36"/><rect class="cls-18" x="654.52" y="170.9" width="43.77" height="43.77" rx="1.36" ry="1.36"/><rect class="cls-17" x="708.35" y="170.9" width="43.77" height="43.77" rx="1.36" ry="1.36"/></svg>