<?xml version="1.0" encoding="UTF-8"?>
<svg width="136px" height="34px" viewBox="0 0 136 34" version="1.1" xmlns="http://www.w3.org/2000/svg" xmlns:xlink="http://www.w3.org/1999/xlink">
    <!-- Generator: Sketch 52.6 (67491) - http://www.bohemiancoding.com/sketch -->
    <title>gamalon-logo</title>
    <desc>Created with Sketch.</desc>
    <g id="Page-1" stroke="none" stroke-width="1" fill="none" fill-rule="evenodd">
        <g id="gamalon-logo" transform="translate(0.000000, -2.000000)">
            <rect id="Rectangle" x="0.033" y="0" width="136.5" height="36"></rect>
            <path d="M8.349,22.263 C7.161,22.263 5.973,22.098 4.884,21.735 C4.323,22.263 3.828,22.89 3.828,23.55 C3.828,24.177 4.224,24.606 4.917,24.606 L11.88,24.606 C16.005,24.606 17.952,26.355 17.952,29.325 C17.952,33.516 13.827,35.859 8.118,35.859 C3.102,35.859 5.68434189e-14,34.407 5.68434189e-14,31.767 C5.68434189e-14,30.084 1.551,29.226 3.069,28.863 C1.716,28.335 0.957,27.114 0.957,25.728 C0.957,23.682 2.475,22.362 4.125,21.405 C2.31,20.58 0.99,19.062 0.99,16.686 C0.99,12.825 4.191,10.548 8.547,10.548 C9.801,10.548 10.725,10.746 11.55,11.01 L17.292,10.878 L17.292,12.924 L15.873,12.924 L13.695,12.825 C14.883,13.617 15.774,14.97 15.774,16.62 C15.774,20.184 12.639,22.263 8.349,22.263 Z M11.979,29.457 L3.663,29.457 C3.333,29.82 3.201,30.381 3.201,31.041 C3.201,33.153 5.181,34.44 8.283,34.44 C11.418,34.44 14.223,33.516 14.223,31.173 C14.223,29.919 13.431,29.457 11.979,29.457 Z M8.547,21.075 C10.23,21.075 10.824,19.392 10.824,16.62 C10.824,14.046 10.032,11.802 8.316,11.802 C6.633,11.802 6.006,13.518 6.006,16.158 C6.006,18.831 6.831,21.075 8.547,21.075 Z M26.07,25.893 C26.829,25.893 27.357,25.596 28.083,25.101 L28.083,18.963 L25.74,19.887 C24.453,20.415 23.628,21.075 23.628,22.956 C23.628,24.672 24.354,25.893 26.07,25.893 Z M33.33,16.125 L33.33,24.87 C33.33,25.827 33.495,26.52 34.32,26.52 C34.815,26.52 35.244,26.388 35.541,26.256 L35.739,27.048 C34.749,28.17 33.429,28.83 31.713,28.83 C29.865,28.83 28.611,27.774 28.182,25.992 C27.159,27.378 25.509,28.764 23.133,28.764 C20.394,28.764 18.546,27.147 18.546,24.408 C18.546,21.537 20.559,20.382 22.968,19.491 L28.083,17.676 L28.083,14.607 C28.083,12.891 27.555,11.703 26.037,11.703 C24.618,11.703 24.024,12.825 24.024,14.409 C24.024,15.102 24.123,15.795 24.321,16.554 L21.153,16.983 C20.229,16.686 19.602,15.927 19.602,14.805 C19.602,11.934 22.572,10.548 26.4,10.548 C30.789,10.548 33.33,12.033 33.33,16.125 Z M59.334,25.959 L59.334,16.257 C59.334,14.574 58.773,13.683 57.156,13.683 C56.001,13.683 55.044,14.178 54.12,14.772 L54.12,25.959 C54.12,27.048 54.516,27.213 55.935,27.312 L55.935,28.5 L47.025,28.5 L47.025,27.312 C48.444,27.213 48.807,27.048 48.807,25.959 L48.807,16.257 C48.807,14.574 48.246,13.683 46.662,13.683 C45.474,13.683 44.55,14.178 43.626,14.772 L43.626,25.959 C43.626,27.048 43.989,27.213 45.441,27.312 L45.441,28.5 L36.366,28.5 L36.366,27.312 C37.785,27.213 38.313,27.048 38.313,25.959 L38.313,14.31 L36.399,13.155 L36.399,12.396 L42.768,10.548 L43.758,10.548 L43.626,13.848 C44.913,12.066 46.695,10.548 49.533,10.548 C52.008,10.548 53.526,11.571 53.955,13.914 C55.242,12.165 57.222,10.548 60.027,10.548 C63.03,10.548 64.647,12.33 64.647,15.828 L64.647,25.959 C64.647,27.048 65.175,27.213 66.594,27.312 L66.594,28.5 L57.519,28.5 L57.519,27.312 C58.938,27.213 59.334,27.048 59.334,25.959 Z M75.108,25.893 C75.867,25.893 76.395,25.596 77.121,25.101 L77.121,18.963 L74.778,19.887 C73.491,20.415 72.666,21.075 72.666,22.956 C72.666,24.672 73.392,25.893 75.108,25.893 Z M82.368,16.125 L82.368,24.87 C82.368,25.827 82.533,26.52 83.358,26.52 C83.853,26.52 84.282,26.388 84.579,26.256 L84.777,27.048 C83.787,28.17 82.467,28.83 80.751,28.83 C78.903,28.83 77.649,27.774 77.22,25.992 C76.197,27.378 74.547,28.764 72.171,28.764 C69.432,28.764 67.584,27.147 67.584,24.408 C67.584,21.537 69.597,20.382 72.006,19.491 L77.121,17.676 L77.121,14.607 C77.121,12.891 76.593,11.703 75.075,11.703 C73.656,11.703 73.062,12.825 73.062,14.409 C73.062,15.102 73.161,15.795 73.359,16.554 L70.191,16.983 C69.267,16.686 68.64,15.927 68.64,14.805 C68.64,11.934 71.61,10.548 75.438,10.548 C79.827,10.548 82.368,12.033 82.368,16.125 Z M92.532,2.661 L92.532,25.959 C92.532,27.048 93.06,27.213 94.512,27.312 L94.512,28.5 L85.272,28.5 L85.272,27.312 C86.724,27.213 87.252,27.048 87.252,25.959 L87.252,6.027 L85.338,5.037 L85.338,4.212 L91.674,2.661 L92.532,2.661 Z M104.709,27.543 C106.92,27.543 107.811,24.87 107.811,20.613 C107.811,15.465 106.854,11.835 104.445,11.835 C102.234,11.835 101.343,14.508 101.343,18.765 C101.343,23.913 102.3,27.543 104.709,27.543 Z M104.544,28.83 C99.297,28.83 95.733,25.365 95.733,20.052 C95.733,14.475 99.462,10.548 104.61,10.548 C109.857,10.548 113.454,14.013 113.454,19.326 C113.454,24.903 109.692,28.83 104.544,28.83 Z M127.776,25.959 L127.776,16.323 C127.776,14.607 127.149,13.716 125.4,13.716 C124.179,13.716 123.057,14.178 122.133,14.772 L122.133,25.959 C122.133,27.048 122.595,27.213 124.014,27.312 L124.014,28.5 L114.873,28.5 L114.873,27.312 C116.292,27.213 116.82,27.048 116.82,25.959 L116.82,14.31 L114.906,13.155 L114.906,12.396 L121.275,10.548 L122.265,10.548 L122.133,13.815 C123.453,12.198 125.334,10.548 128.238,10.548 C131.373,10.548 133.089,12.33 133.089,15.927 L133.089,25.959 C133.089,27.048 133.617,27.213 135.036,27.312 L135.036,28.5 L125.895,28.5 L125.895,27.312 C127.314,27.213 127.776,27.048 127.776,25.959 Z" id="gamalon" fill="#FFFFFF" fill-rule="nonzero"></path>
        </g>
    </g>
</svg>