<?xml version="1.0" encoding="UTF-8"?>
<svg width="146px" height="48px" viewBox="0 0 146 48" version="1.1" xmlns="http://www.w3.org/2000/svg" xmlns:xlink="http://www.w3.org/1999/xlink">
    <!-- Generator: Sketch 53 (72520) - https://sketchapp.com -->
    <title>twitch-logo</title>
    <desc>Created with Sketch.</desc>
    <g id="Page-1" stroke="none" stroke-width="1" fill="none" fill-rule="evenodd">
        <g id="twitch-logo" transform="translate(0.000000, -1.000000)" fill="#FFFFFF" fill-rule="nonzero">
            <g id="g3363" transform="translate(73.500000, 24.500000) scale(-1, 1) rotate(-180.000000) translate(-73.500000, -24.500000) ">
                <g id="g3371" transform="translate(0.342092, 0.152656)">
                    <path d="M141.813336,31.4280464 L136.01937,37.1458556 L125.255992,37.1458556 L125.255992,44.5000185 L116.148094,44.5000185 L116.148094,11.0019115 L125.255992,11.0019115 L125.255992,28.1603676 L132.705438,28.1603676 L132.705438,11.0019115 L141.813336,11.0019115 L141.813336,31.4280464 Z M112.838834,37.1458556 L98.7653456,37.1458556 L92.9701055,31.4280464 L92.9701055,16.7222349 L98.7653456,11.0019115 L112.838834,11.0019115 L112.838834,19.9882375 L102.075456,19.9882375 L102.075456,28.1603676 L112.838834,28.1603676 L112.838834,37.1458556 Z M89.6587217,37.1458556 L82.2092756,37.1458556 L82.2092756,44.5000185 L73.1013779,44.5000185 L73.1013779,16.7222349 L78.8966181,11.0019115 L89.6587217,11.0019115 L89.6587217,19.9882375 L82.2092756,19.9882375 L82.2092756,28.1603676 L89.6587217,28.1603676 L89.6587217,37.1458556 Z M69.789994,44.5000185 L60.6846438,44.5000185 L60.6846438,40.4135344 L69.789994,40.4135344 L69.789994,44.5000185 Z M69.789994,37.1458556 L60.6846438,37.1458556 L60.6846438,11.0023305 L69.789994,11.0023305 L69.789994,37.1458556 Z M57.3732599,37.1458556 L48.2670605,37.1458556 L48.2670605,19.9882375 L44.9565258,19.9882375 L44.9565258,37.1458556 L35.8499018,37.1458556 L35.8499018,19.9882375 L32.5397917,19.9882375 L32.5397917,37.1458556 L23.4318938,37.1458556 L23.4318938,11.0019115 L51.5792935,11.0019115 L57.3732599,16.7222349 L57.3732599,37.1458556 Z M20.12051,37.1458556 L12.6706394,37.1458556 L12.6706394,44.5000185 L3.56443998,44.5000185 L3.56443998,16.7222349 L9.35925557,11.0019115 L20.12051,11.0019115 L20.12051,19.9882375 L12.6706394,19.9882375 L12.6706394,28.1603676 L20.12051,28.1603676 L20.12051,37.1458556 Z M145.122172,33.0623048 L145.122172,8.55219998 L132.705438,0.381326963 L124.427616,0.381326963 L124.427616,4.46781107 L118.6328,0.381326963 L111.183354,0.381326963 L111.183354,4.46781107 L107.045291,0.381326963 L93.7993314,0.381326963 L89.6587217,4.46781107 L88.8299204,0.381326963 L77.2419876,0.381326963 L72.5031293,4.46781107 L72.2377601,0.381326963 L59.1030429,0.381326963 L58.6385406,4.46781107 L55.083017,0.381326963 L35.0211005,0.381326963 L30.8813399,2.01558538 L30.8813399,0.381326963 L20.12051,0.381326963 L7.70250216,7.7363279 L0.252631541,15.0858813 L0.252631541,47.7672782 L15.9824479,47.7672782 L23.4318938,40.4135344 L57.3732599,40.4135344 L57.3732599,47.7672782 L85.5193857,47.7672782 L85.5193857,40.4135344 L92.9701055,40.4135344 L92.9701055,36.3295645 L97.1107153,40.4135344 L105.387264,40.4135344 L112.838834,47.7672782 L128.567376,47.7672782 L128.567376,40.4135344 L137.674,40.4135344 L145.122172,33.0623048 Z" id="path3373"></path>
                </g>
            </g>
        </g>
    </g>
</svg>