<?xml version="1.0" encoding="UTF-8"?>
<svg width="150px" height="50px" viewBox="0 0 150 50" version="1.1" xmlns="http://www.w3.org/2000/svg" xmlns:xlink="http://www.w3.org/1999/xlink">
    <!-- Generator: Sketch 52.6 (67491) - http://www.bohemiancoding.com/sketch -->
    <title>twitch-logo</title>
    <desc>Created with Sketch.</desc>
    <g id="Page-1" stroke="none" stroke-width="1" fill="none" fill-rule="evenodd">
        <g id="twitch-logo" transform="translate(-0.304837, -1.543722)" fill="#6441A5">
            <g id="g3363" transform="translate(75.543310, 26.409309) scale(-1, 1) rotate(-180.000000) translate(-75.543310, -26.409309) translate(0.043310, 0.909309)">
                <g id="g3371" transform="translate(0.351401, 0.158887)">
                    <path d="M145.672202,32.7108238 L139.720577,38.662013 L128.664318,38.662013 L128.664318,46.3163458 L119.308586,46.3163458 L119.308586,11.4509691 L128.664318,11.4509691 L128.664318,29.3097704 L136.31647,29.3097704 L136.31647,11.4509691 L145.672202,11.4509691 L145.672202,32.7108238 Z M115.909278,38.662013 L101.452838,38.662013 L95.4999043,32.7108238 L95.4999043,17.4047751 L101.452838,11.4509691 L115.909278,11.4509691 L115.909278,20.8040839 L104.853019,20.8040839 L104.853019,29.3097704 L115.909278,29.3097704 L115.909278,38.662013 Z M92.0984148,38.662013 L84.4462627,38.662013 L84.4462627,46.3163458 L75.090531,46.3163458 L75.090531,17.4047751 L81.0434648,11.4509691 L92.0984148,11.4509691 L92.0984148,20.8040839 L84.4462627,20.8040839 L84.4462627,29.3097704 L92.0984148,29.3097704 L92.0984148,38.662013 Z M71.6890415,46.3163458 L62.3359266,46.3163458 L62.3359266,42.0630664 L71.6890415,42.0630664 L71.6890415,46.3163458 Z M71.6890415,38.662013 L62.3359266,38.662013 L62.3359266,11.4514052 L71.6890415,11.4514052 L71.6890415,38.662013 Z M58.934437,38.662013 L49.5804499,38.662013 L49.5804499,20.8040839 L46.1798326,20.8040839 L46.1798326,38.662013 L36.8254093,38.662013 L36.8254093,20.8040839 L33.4252282,20.8040839 L33.4252282,38.662013 L24.0694964,38.662013 L24.0694964,11.4509691 L52.9828117,11.4509691 L58.934437,17.4047751 L58.934437,38.662013 Z M20.6680069,38.662013 L13.0154187,38.662013 L13.0154187,46.3163458 L3.66143154,46.3163458 L3.66143154,17.4047751 L9.61392919,11.4509691 L20.6680069,11.4509691 L20.6680069,20.8040839 L13.0154187,20.8040839 L13.0154187,29.3097704 L20.6680069,29.3097704 L20.6680069,38.662013 Z M149.071075,34.4117866 L149.071075,8.90126937 L136.31647,0.396891329 L127.813401,0.396891329 L127.813401,4.65017071 L121.860903,0.396891329 L114.208751,0.396891329 L114.208751,4.65017071 L109.958088,0.396891329 L96.3516942,0.396891329 L92.0984148,4.65017071 L91.2470611,0.396891329 L79.3438104,0.396891329 L74.4760036,4.65017071 L74.2034134,0.396891329 L60.711289,0.396891329 L60.2341471,4.65017071 L56.5818746,0.396891329 L35.9740556,0.396891329 L31.7216485,2.09785417 L31.7216485,0.396891329 L20.6680069,0.396891329 L7.91209406,8.05209639 L0.259505869,15.7016316 L0.259505869,49.716963 L16.4173444,49.716963 L24.0694964,42.0630664 L58.934437,42.0630664 L58.934437,49.716963 L87.8464438,49.716963 L87.8464438,42.0630664 L95.4999043,42.0630664 L95.4999043,37.8124039 L99.7531837,42.0630664 L108.254945,42.0630664 L115.909278,49.716963 L132.065808,49.716963 L132.065808,42.0630664 L141.420231,42.0630664 L149.071075,34.4117866 Z" id="path3373"></path>
                </g>
            </g>
        </g>
    </g>
</svg>