<?xml version="1.0" encoding="UTF-8"?>
<svg width="180px" height="40px" viewBox="0 0 180 40" version="1.1" xmlns="http://www.w3.org/2000/svg" xmlns:xlink="http://www.w3.org/1999/xlink">
    <!-- Generator: Sketch 52.6 (67491) - http://www.bohemiancoding.com/sketch -->
    <title>Verizon_2015_logo_-vector</title>
    <desc>Created with Sketch.</desc>
    <g id="Page-1" stroke="none" stroke-width="1" fill="none" fill-rule="evenodd">
        <g id="Desktop-HD" transform="translate(-630.000000, -265.000000)">
            <g id="Group-3">
                <g id="Group" transform="translate(620.000000, 260.000000)">
                    <g id="Verizon_2015_logo_-vector" transform="translate(10.000000, 5.000000)">
                        <polygon id="Path" fill="#D52B1E" points="176.082192 0 166.246575 21.0410959 162.547945 13.0684932 158.547945 13.0684932 164.630137 26.109589 167.863014 26.109589 180.054795 0"></polygon>
                        <path d="M133.890411,39.0684932 L141.808219,39.0684932 L141.808219,24.5753425 C141.808219,21.260274 143.726027,18.9315068 146.575342,18.9315068 C149.315068,18.9315068 150.739726,20.8493151 150.739726,23.6164384 L150.739726,39.0684932 L158.657534,39.0684932 L158.657534,22.109589 C158.657534,16.3561644 155.205479,12.3013699 149.616438,12.3013699 C146.054795,12.3013699 143.561644,13.8356164 141.69863,16.630137 L141.534247,16.630137 L141.534247,13.0684932 L133.863014,13.0684932 L133.890411,39.0684932 Z M118.328767,12.3561644 C110.054795,12.3561644 104.520548,18.3013699 104.520548,26.1369863 C104.520548,33.9178082 110.054795,39.9178082 118.328767,39.9178082 C126.60274,39.9178082 132.136986,33.9178082 132.136986,26.1369863 C132.164384,18.3013699 126.60274,12.3561644 118.328767,12.3561644 Z M118.273973,34.0547945 C114.520548,34.0547945 112.520548,30.9041096 112.520548,26.1369863 C112.520548,21.3150685 114.493151,18.2191781 118.273973,18.2191781 C122.027397,18.2191781 124.109589,21.3150685 124.109589,26.1369863 C124.136986,30.9041096 122.054795,34.0547945 118.273973,34.0547945 Z M81.9452055,39.0684932 L104.191781,39.0684932 L104.191781,32.8219178 L91.5890411,32.8219178 L91.5890411,32.6575342 L103.643836,19.1506849 L103.643836,13.0410959 L81.9452055,13.0410959 L81.9452055,19.3150685 L94.1369863,19.3150685 L94.1369863,19.4794521 L81.9452055,33.0958904 L81.9452055,39.0684932 Z M71.7808219,39.0684932 L79.7534247,39.0684932 L79.7534247,13.0684932 L71.7808219,13.0684932 L71.7808219,39.0684932 Z M53.2876712,39.0684932 L61.2328767,39.0684932 L61.2328767,27.1232877 C61.2328767,21.6986301 64.4931507,19.2876712 69.4520548,19.9726027 L69.6164384,19.9726027 L69.6164384,13.1232877 C69.2054795,12.9589041 68.739726,12.9315068 68,12.9315068 C64.9041096,12.9315068 62.8219178,14.3561644 61.0410959,17.3972603 L60.8767123,17.3972603 L60.8767123,13.0684932 L53.2876712,13.0684932 L53.2876712,39.0684932 Z M38.7123288,34.0821918 C35.2054795,34.0821918 33.0684932,31.8082192 32.6575342,28.3013699 L51.3972603,28.3013699 C51.4520548,22.7123288 49.9726027,18.2465753 46.8767123,15.4520548 C44.6849315,13.4246575 41.8082192,12.3013699 38.1369863,12.3013699 C30.3013699,12.3013699 24.8767123,18.2465753 24.8767123,26.0273973 C24.8767123,33.8630137 30.0547945,39.8356164 38.6575342,39.8356164 C41.9178082,39.8356164 44.4931507,38.9589041 46.630137,37.5068493 C48.9041096,35.9452055 50.5479452,33.6438356 50.9863014,31.369863 L43.369863,31.369863 C42.630137,33.0684932 41.0410959,34.0821918 38.7123288,34.0821918 Z M38.3013699,17.9726027 C41.0958904,17.9726027 43.0136986,20.0547945 43.3424658,23.0958904 L32.7123288,23.0958904 C33.3424658,20.0273973 35.0136986,17.9726027 38.3013699,17.9726027 Z M9.04109589,39.0684932 L17.369863,39.0684932 L26.4109589,13.0684932 L18.4383562,13.0684932 L13.369863,29.7808219 L13.260274,29.7808219 L8.19178082,13.0684932 L0,13.0684932 L9.04109589,39.0684932 Z M71.7808219,3.80821918 L79.7534247,3.80821918 L79.7534247,10.8767123 L71.7808219,10.8767123 L71.7808219,3.80821918 Z" id="Shape" fill="#FFFFFF" fill-rule="nonzero"></path>
                    </g>
                </g>
            </g>
        </g>
    </g>
</svg>