<?xml version="1.0" encoding="UTF-8"?>
<svg width="166px" height="38px" viewBox="0 0 166 38" version="1.1" xmlns="http://www.w3.org/2000/svg" xmlns:xlink="http://www.w3.org/1999/xlink">
    <!-- Generator: Sketch 53 (72520) - https://sketchapp.com -->
    <title>verizon-logo</title>
    <desc>Created with Sketch.</desc>
    <g id="Page-1" stroke="none" stroke-width="1" fill="none" fill-rule="evenodd">
        <g id="verizon-logo" fill="#FFFFFF" fill-rule="nonzero">
            <polygon id="Path" points="161.932438 0.670851 152.918513 19.9541203 149.528876 12.6475691 145.863047 12.6475691 151.437117 24.5991786 154.399911 24.5991786 165.57316 0.670851"></polygon>
            <path d="M123.265466,36.4754629 L130.5218,36.4754629 L130.5218,23.1931069 C130.5218,20.1549877 132.279389,18.0207716 134.890665,18.0207716 C137.401508,18.0207716 138.707146,19.7783613 138.707146,22.3143121 L138.707146,36.4754629 L145.96348,36.4754629 L145.96348,20.9333487 C145.96348,15.6605798 142.799819,11.9445332 137.6777,11.9445332 C134.413606,11.9445332 132.128739,13.3506048 130.421366,15.9116641 L130.270716,15.9116641 L130.270716,12.6475691 L123.240357,12.6475691 L123.265466,36.4754629 Z M109.003881,11.99475 C101.421138,11.99475 96.3492357,17.4432779 96.3492357,24.624287 C96.3492357,31.7550793 101.421138,37.253824 109.003881,37.253824 C116.586625,37.253824 121.658526,31.7550793 121.658526,24.624287 C121.683635,17.4432779 116.586625,11.99475 109.003881,11.99475 Z M108.953665,31.8806214 C105.51381,31.8806214 103.680895,28.9931527 103.680895,24.624287 C103.680895,20.2052045 105.488702,17.3679526 108.953665,17.3679526 C112.393518,17.3679526 114.301758,20.2052045 114.301758,24.624287 C114.326867,28.9931527 112.418627,31.8806214 108.953665,31.8806214 Z M75.6598947,36.4754629 L96.0479347,36.4754629 L96.0479347,30.7507423 L84.4980597,30.7507423 L84.4980597,30.6000918 L95.5457664,18.221639 L95.5457664,12.6224606 L75.6598947,12.6224606 L75.6598947,18.3722896 L86.8331431,18.3722896 L86.8331431,18.5229401 L75.6598947,31.0018266 L75.6598947,36.4754629 Z M66.3446695,36.4754629 L73.6512208,36.4754629 L73.6512208,12.6475691 L66.3446695,12.6475691 L66.3446695,36.4754629 Z M49.3964837,36.4754629 L56.6779265,36.4754629 L56.6779265,25.5281903 C56.6779265,20.5567224 59.6658289,18.3471811 64.2104536,18.9748917 L64.3611041,18.9748917 L64.3611041,12.6977859 C63.9844778,12.5471353 63.5576345,12.5220268 62.8797071,12.5220268 C60.0424553,12.5220268 58.1342151,13.8276649 56.5021676,16.6146999 L56.351517,16.6146999 L56.351517,12.6475691 L49.3964837,12.6475691 L49.3964837,36.4754629 Z M36.0388024,31.9057298 C32.8249242,31.9057298 30.8664672,29.8217307 30.4898408,26.6078525 L47.6640025,26.6078525 C47.7142193,21.4857341 46.3583644,17.393061 43.5211126,14.8320019 C41.5124387,12.9739785 38.8760543,11.9445332 35.5115255,11.9445332 C28.3305164,11.9445332 23.3590485,17.393061 23.3590485,24.5238534 C23.3590485,31.7048624 28.1045406,37.1784987 35.9885855,37.1784987 C38.9764879,37.1784987 41.3366798,36.3750292 43.2951368,35.0442827 C45.3791359,33.6131026 46.8856413,31.503995 47.2873761,29.4199959 L40.3072344,29.4199959 C39.629307,30.9767182 38.1730184,31.9057298 36.0388024,31.9057298 Z M35.6621761,17.1419768 C38.2232352,17.1419768 39.9808249,19.050217 40.282126,21.837252 L30.5400577,21.837252 C31.1175514,19.0251086 32.6491652,17.1419768 35.6621761,17.1419768 Z M8.84637975,36.4754629 L16.4793405,36.4754629 L24.7651202,12.6475691 L17.458569,12.6475691 L12.8135107,27.9637073 L12.713077,27.9637073 L8.06801862,12.6475691 L0.5606,12.6475691 L8.84637975,36.4754629 Z M66.3446695,4.16092187 L73.6512208,4.16092187 L73.6512208,10.6388951 L66.3446695,10.6388951 L66.3446695,4.16092187 Z" id="Shape"></path>
        </g>
    </g>
</svg>