<?xml version="1.0" encoding="UTF-8"?>
<svg width="166px" height="38px" viewBox="0 0 166 38" version="1.1" xmlns="http://www.w3.org/2000/svg" xmlns:xlink="http://www.w3.org/1999/xlink">
    <!-- Generator: Sketch 52.6 (67491) - http://www.bohemiancoding.com/sketch -->
    <title>verizon-logo</title>
    <desc>Created with Sketch.</desc>
    <g id="Page-1" stroke="none" stroke-width="1" fill="none" fill-rule="evenodd">
        <g id="verizon-logo" transform="translate(0.560600, 0.670851)">
            <polygon id="Path" fill="#D52B1E" points="161.371838 0 152.357913 19.2832693 148.968276 11.9767181 145.302447 11.9767181 150.876517 23.9283276 153.839311 23.9283276 165.01256 0"></polygon>
            <path d="M122.704866,35.8046119 L129.9612,35.8046119 L129.9612,22.5222559 C129.9612,19.4841367 131.718789,17.3499206 134.330065,17.3499206 C136.840908,17.3499206 138.146546,19.1075103 138.146546,21.6434611 L138.146546,35.8046119 L145.40288,35.8046119 L145.40288,20.2624977 C145.40288,14.9897288 142.239219,11.2736822 137.1171,11.2736822 C133.853006,11.2736822 131.568139,12.6797538 129.860766,15.2408131 L129.710116,15.2408131 L129.710116,11.9767181 L122.679757,11.9767181 L122.704866,35.8046119 Z M108.443281,11.323899 C100.860538,11.323899 95.7886357,16.7724269 95.7886357,23.953436 C95.7886357,31.0842283 100.860538,36.582973 108.443281,36.582973 C116.026025,36.582973 121.097926,31.0842283 121.097926,23.953436 C121.123035,16.7724269 116.026025,11.323899 108.443281,11.323899 Z M108.393065,31.2097704 C104.95321,31.2097704 103.120295,28.3223017 103.120295,23.953436 C103.120295,19.5343535 104.928102,16.6971016 108.393065,16.6971016 C111.832918,16.6971016 113.741158,19.5343535 113.741158,23.953436 C113.766267,28.3223017 111.858027,31.2097704 108.393065,31.2097704 Z M75.0992947,35.8046119 L95.4873347,35.8046119 L95.4873347,30.0798913 L83.9374597,30.0798913 L83.9374597,29.9292408 L94.9851664,17.550788 L94.9851664,11.9516096 L75.0992947,11.9516096 L75.0992947,17.7014386 L86.2725431,17.7014386 L86.2725431,17.8520891 L75.0992947,30.3309756 L75.0992947,35.8046119 Z M65.7840695,35.8046119 L73.0906208,35.8046119 L73.0906208,11.9767181 L65.7840695,11.9767181 L65.7840695,35.8046119 Z M48.8358837,35.8046119 L56.1173265,35.8046119 L56.1173265,24.8573393 C56.1173265,19.8858714 59.1052289,17.6763301 63.6498536,18.3040407 L63.8005041,18.3040407 L63.8005041,12.0269349 C63.4238778,11.8762843 62.9970345,11.8511758 62.3191071,11.8511758 C59.4818553,11.8511758 57.5736151,13.1568139 55.9415676,15.9438489 L55.790917,15.9438489 L55.790917,11.9767181 L48.8358837,11.9767181 L48.8358837,35.8046119 Z M35.4782024,31.2348788 C32.2643242,31.2348788 30.3058672,29.1508797 29.9292408,25.9370015 L47.1034025,25.9370015 C47.1536193,20.8148831 45.7977644,16.72221 42.9605126,14.1611509 C40.9518387,12.3031275 38.3154543,11.2736822 34.9509255,11.2736822 C27.7699164,11.2736822 22.7984485,16.72221 22.7984485,23.8530024 C22.7984485,31.0340114 27.5439406,36.5076477 35.4279855,36.5076477 C38.4158879,36.5076477 40.7760798,35.7041782 42.7345368,34.3734317 C44.8185359,32.9422516 46.3250413,30.833144 46.7267761,28.7491449 L39.7466344,28.7491449 C39.068707,30.3058672 37.6124184,31.2348788 35.4782024,31.2348788 Z M35.1015761,16.4711258 C37.6626352,16.4711258 39.4202249,18.379366 39.721526,21.166401 L29.9794577,21.166401 C30.5569514,18.3542576 32.0885652,16.4711258 35.1015761,16.4711258 Z M8.28577975,35.8046119 L15.9187405,35.8046119 L24.2045202,11.9767181 L16.897969,11.9767181 L12.2529107,27.2928563 L12.152477,27.2928563 L7.50741862,11.9767181 L0,11.9767181 L8.28577975,35.8046119 Z M65.7840695,3.49007087 L73.0906208,3.49007087 L73.0906208,9.9680441 L65.7840695,9.9680441 L65.7840695,3.49007087 Z" id="Shape" fill="#FFFFFF" fill-rule="nonzero"></path>
        </g>
    </g>
</svg>